<svg xmlns="http://www.w3.org/2000/svg" width="96" height="96" viewBox="0 0 96 96" role="img" aria-labelledby="kimi-code-title">
  <title id="kimi-code-title">ATape Kimi Code tape cartridge</title>
  <defs>
    <linearGradient id="kimi-code-flow" gradientUnits="userSpaceOnUse" x1="13" y1="10" x2="84" y2="91">
      <stop stop-color="#262729"/>
      <stop offset=".2" stop-color="#53565A"/>
      <stop offset=".39" stop-color="#262729"/>
      <stop offset=".56" stop-color="#53565A"/>
      <stop offset=".68" stop-color="#94999F"/>
      <stop offset=".82" stop-color="#262729"/>
      <stop offset="1" stop-color="#262729"/>
    </linearGradient>
    <radialGradient id="kimi-code-glow" gradientUnits="userSpaceOnUse" cx="0" cy="0" r="1" gradientTransform="translate(60 7) rotate(132) scale(65 19)">
      <stop stop-color="#94999F" stop-opacity=".85"/>
      <stop offset="1" stop-color="#94999F" stop-opacity="0"/>
    </radialGradient>
    <mask id="kimi-code-cutouts" maskUnits="userSpaceOnUse" x="0" y="0" width="96" height="96" style="mask-type: luminance">
      <rect width="96" height="96" fill="#fff"/>
      <circle cx="47" cy="43" r="29" fill="#000"/>
      <path d="M66 64V76H75" fill="none" stroke="#000" stroke-width="5" stroke-linecap="round" stroke-linejoin="round"/>
      <g fill="#fff">
        <circle cx="47" cy="21" r="4.2"/>
        <circle cx="47" cy="21" r="4.2" transform="rotate(72 47 43)"/>
        <circle cx="47" cy="21" r="4.2" transform="rotate(144 47 43)"/>
        <circle cx="47" cy="21" r="4.2" transform="rotate(216 47 43)"/>
        <circle cx="47" cy="21" r="4.2" transform="rotate(288 47 43)"/>
      </g>
      <rect x="19" y="78" width="20" height="4" rx="2" fill="#000"/>
      <circle cx="46" cy="80" r="2.2" fill="#000"/>
      <path d="M37 33h5v9.8L52.5 33H59L46.4 44.4 59 54h-7.5L42 46.5V54h-5Z" transform="translate(47 43) scale(1.10) translate(-47 -43)" fill="#fff"/>
    </mask>
    <path id="kimi-code-case" d="M20 5H76Q91 5 91 20V70L70 91H20Q5 91 5 76V20Q5 5 20 5Z"/>
  </defs>
  <g mask="url(#kimi-code-cutouts)">
    <use href="#kimi-code-case" fill="url(#kimi-code-flow)"/>
    <use href="#kimi-code-case" fill="url(#kimi-code-glow)"/>
  </g>
  <circle cx="59.5" cy="28.5" r="2.2" fill="#1783FF"/>
</svg>
